<?xml version="1.0" encoding="utf-8"?>
<!-- Generator: Adobe Illustrator 24.0.3, SVG Export Plug-In . SVG Version: 6.00 Build 0)  -->
<svg version="1.1" id="Layer_1" xmlns="http://www.w3.org/2000/svg" xmlns:xlink="http://www.w3.org/1999/xlink" x="0px" y="0px"
	 viewBox="0 0 153.4 223.51" style="enable-background:new 0 0 153.4 223.51;" xml:space="preserve">
<style type="text/css">
	.st0{fill:#66C9D5;}
	.st1{fill:#30455B;}
	.st2{fill:#398E5B;}
	.st3{fill:#01544F;}
	.st4{fill:#D9B358;}
</style>
<circle class="st0" cx="76.29" cy="112.39" r="49.58"/>
<path class="st1" d="M125.87,112.39c0,27.38-22.2,49.58-49.58,49.58V62.81C103.67,62.81,125.87,85.01,125.87,112.39z"/>
<path class="st2" d="M27.08,115.63c0,0,3.8-1.67,7.15-5.1c0,0,0.53-0.99,0.53-1.83s2.59-3.42,2.59-3.42s1.98-3.65,1.9-4.26
	c-0.08-0.61,2.81-3.19,1.37-12.93c0,0-0.1-2.12,1.04-5.96c1.14-3.84,0.86-5.86,0.86-5.86S25.97,90.2,27.08,115.63z"/>
<path class="st2" d="M61.75,159.48c0,0,3.47-9.82-9.92-17.82c0,0-1.1-3.56-3.44-4.99c-2.34-1.43-3.39-2.91-7.93-3.34
	c0,0-2.09-0.46-2.21-2.81s-0.22-7.43-1.79-8.06s-5.38,1.19-7.88,3.96C28.58,126.4,34.61,151.33,61.75,159.48z"/>
<path class="st2" d="M126.09,113.72c0,0-3.94,6.48-7.51,2.8c0,0-0.62-2.75-1.87-3.06c-1.24-0.31-4.25-2.24-6.17,2.09
	c0,0-2.37,7.11-2.56,9.18c-0.19,2.07-1.69,4.98-1.99,5.6s-1.84,6.37-2.72,7.63c-0.88,1.27-4.49,5.41-5.02,5.9
	c-0.54,0.5-3.34,1.3-4.22-1.3s-3.57-7.9-4.49-12.39c0,0-0.84-1.99-3.18-2.61c-2.34-0.61-3.41-1.57-3.76-2.07s-2.11-5.25-8.21-7.06
	c0,0-1.69-0.12-1.65-1.53s0.54-5.21-1.57-7.02c-2.11-1.8-3.49-6.56,2.45-12.19c0,0,1.92-1.88,2.07-5.87
	c0.15-3.99,1.65-4.37,4.29-1.73c2.65,2.65,3.83,4.6,3.83,4.6s1.42,2.11,2.34-0.27c0.92-2.38,1.53-8.32,1.07-9.05
	c-0.46-0.73-0.69-2.8,3.34-1.8c4.03,1,7.94-2.03,8.05-2.76s0.23-1.15-0.23-2.11c-0.46-0.96-1.65-4.79-1.42-6.17
	c0.23-1.38,0.96-4.37,1.5-4.75S126.42,79.81,126.09,113.72z"/>
<path class="st2" d="M60,65.24c0,0-0.09,4.3-1.7,6.47c-1.61,2.17-4.2,8.03-3.82,8.5c0.38,0.47,1.46-0.28,2.12-0.61
	c0.66-0.33,7.7-3.07,12.77-2.93c5.08,0.14,0.4-5.57,0.4-5.57s-0.85-1.19,0.66-3.31c1.51-2.12,3.45-4.81,3.49-5.1
	C73.97,62.41,63.11,63.73,60,65.24z"/>
<path class="st3" d="M126.09,113.72c0,0-3.94,6.48-7.51,2.8c0,0-0.63-2.75-1.87-3.06s-4.25-2.24-6.17,2.1c0,0-2.37,7.11-2.56,9.18
	s-1.68,4.98-1.99,5.6c-0.31,0.61-1.84,6.36-2.72,7.63c-0.89,1.26-4.49,5.4-5.03,5.9c-0.53,0.5-3.33,1.31-4.21-1.3
	c-0.89-2.61-3.57-7.9-4.49-12.39c0,0-0.84-1.99-3.18-2.6c-2.34-0.62-3.42-1.58-3.76-2.07c-0.31-0.44-1.73-4.24-6.31-6.35V89.04
	c0.68-1.11,1.94-0.69,3.7,1.07c2.65,2.65,3.84,4.61,3.84,4.61s1.42,2.1,2.34-0.27c0.92-2.38,1.53-8.32,1.07-9.05
	c-0.46-0.73-0.69-2.8,3.33-1.8c4.03,0.99,7.94-2.04,8.06-2.76c0.11-0.73,0.23-1.15-0.23-2.11c-0.46-0.96-1.65-4.8-1.42-6.18
	s0.96-4.37,1.49-4.75C99.01,67.42,126.41,79.81,126.09,113.72z"/>
<polygon class="st4" points="26.96,77.04 25.02,77.17 25.84,78.93 24.19,77.9 23.83,79.81 23.1,78 21.68,79.33 22.16,77.44 
	20.23,77.68 21.72,76.44 20.02,75.5 21.96,75.37 21.13,73.61 22.78,74.64 23.15,72.73 23.87,74.53 25.29,73.21 24.82,75.09 
	26.75,74.85 25.26,76.1 "/>
<polygon class="st4" points="136.03,95.99 134.1,96.13 134.92,97.89 133.27,96.85 132.9,98.76 132.18,96.96 130.76,98.28 
	131.23,96.4 129.31,96.64 130.8,95.39 129.1,94.45 131.03,94.32 130.21,92.56 131.86,93.59 132.23,91.69 132.95,93.49 134.37,92.16 
	133.9,94.05 135.83,93.81 134.33,95.05 "/>
<polygon class="st4" points="62.33,181.02 60.39,181.15 61.21,182.91 59.57,181.88 59.2,183.79 58.48,181.98 57.06,183.31 
	57.53,181.43 55.6,181.67 57.09,180.42 55.39,179.48 57.33,179.35 56.51,177.59 58.15,178.62 58.52,176.71 59.25,178.52 
	60.67,177.19 60.19,179.07 62.12,178.83 60.63,180.08 "/>
<path class="st4" d="M116.69,62.14c-0.8,0.68-1.82,1.1-2.94,1.16c-2.78,0.15-5.15-1.97-5.3-4.74c-0.15-2.78,1.97-5.15,4.74-5.3
	c0.03,0,0.06,0,0.09,0c-1.85,0.72-3.1,2.59-2.99,4.68c0.14,2.62,2.38,4.63,5,4.48C115.79,62.4,116.25,62.31,116.69,62.14z"/>
</svg>
