<svg id="Layer_1" data-name="Layer 1" xmlns="http://www.w3.org/2000/svg" viewBox="0 0 188.57 206.19"><defs><style>.cls-1{fill:#182a3c;}</style></defs><path class="cls-1" d="M144.87,55.09v114a7.4,7.4,0,0,1-3.42,6.23l-30.63,19.52L80.75,214a7.4,7.4,0,0,1-7.94,0L42.73,194.86,12.09,175.34a7.41,7.41,0,0,1-3.41-6.23v-114a7.41,7.41,0,0,1,3.41-6.23L42.73,29.34,72.81,10.16a7.4,7.4,0,0,1,7.94,0l30.07,19.18,30.63,19.52A7.4,7.4,0,0,1,144.87,55.09Z" transform="translate(-8.68 -9)"/><text x="-8.68" y="-9"/></svg>